<?xml version="1.0" encoding="utf-8"?>
<!-- Generator: Adobe Illustrator 24.3.1, SVG Export Plug-In . SVG Version: 6.00 Build 0)  -->
<svg version="1.1" xmlns="http://www.w3.org/2000/svg" xmlns:xlink="http://www.w3.org/1999/xlink" x="0px" y="0px"
	 viewBox="0 0 256 256" style="enable-background:new 0 0 256 256;" xml:space="preserve">
<style type="text/css">
	.st0{fill:#FFCD03;}
	.st1{fill:#4A9BD3;}
	.st2{fill:#5ABBB4;}
	.st3{fill:#F68E25;}
	.st4{fill:#CCDB29;}
	.st5{fill:#8F78B6;}
	.st6{fill:#E14585;}
	.st7{fill:#97C93C;}
	
</style>
<g id="Layer_1">
	<path class="st0" d="M161.52,221.7c0,19.03-14.27,33.3-33.3,33.3s-33.3-14.27-33.3-33.3H161.52z"/>
	<path class="st0" d="M155.18,172.54c0,14.27-11.1,26.96-26.96,26.96c-14.27,0-26.96-12.69-26.96-26.96H155.18z"/>
	<path class="st1" d="M94.92,36.15c0-19.03,14.27-34.89,33.3-34.89s33.3,15.86,33.3,34.89H94.92z"/>
	<path class="st1" d="M101.26,85.31c0-14.27,12.69-26.96,26.96-26.96c15.86,0,26.96,12.69,26.96,26.96H101.26z"/>
	<path class="st2" d="M72.71,12.36c3.17,4.76,1.59,11.1-3.17,14.27s-11.1,1.59-14.27-3.17s0-11.1,4.76-14.27S71.13,7.61,72.71,12.36
		L72.71,12.36z"/>
	<path class="st3" d="M201.17,234.38c3.17,4.76,1.59,11.1-3.17,14.27c-4.76,1.59-11.1,0-14.27-4.76c-3.17-4.76-1.59-11.1,3.17-12.69
		C191.65,228.04,198,229.63,201.17,234.38L201.17,234.38z"/>
	<path class="st2" d="M21.97,55.18c6.34,3.17,7.93,9.52,4.76,14.27s-9.52,6.34-14.27,4.76c-4.76-3.17-6.34-9.52-3.17-14.27
		S17.21,53.6,21.97,55.18L21.97,55.18z"/>
	<path class="st3" d="M243.99,183.64c4.76,3.17,6.34,9.52,3.17,14.27c-1.59,4.76-7.93,6.34-12.69,3.17s-6.34-9.52-4.76-14.27
		C232.88,182.05,239.23,180.46,243.99,183.64L243.99,183.64z"/>
	<path class="st4" d="M12.45,183.64c4.76-3.17,11.1-1.59,14.27,3.17s1.59,11.1-4.76,14.27c-4.76,3.17-9.52,1.59-12.69-3.17
		S7.69,186.81,12.45,183.64L12.45,183.64z"/>
	<path class="st5" d="M234.47,55.18c4.76-1.59,11.1,0,12.69,4.76c3.17,4.76,1.59,11.1-3.17,14.27c-4.76,1.59-11.1,0-14.27-4.76
		C228.13,64.7,229.71,58.35,234.47,55.18L234.47,55.18z"/>
	<path class="st4" d="M55.27,234.38c3.17-4.76,9.52-6.34,14.27-3.17c4.76,1.59,6.34,7.93,3.17,12.69
		c-1.59,4.76-7.93,6.34-12.69,4.76C55.27,245.48,52.1,239.14,55.27,234.38L55.27,234.38z"/>
	<path class="st5" d="M183.72,12.36c3.17-4.76,9.52-6.34,14.27-3.17s6.34,9.52,3.17,14.27c-3.17,4.76-9.52,6.34-14.27,3.17
		S180.55,17.12,183.72,12.36L183.72,12.36z"/>
	<path class="st2" d="M74.3,50.43c6.34,6.34,6.34,17.44,0,23.79c-6.34,7.93-17.44,7.93-23.79,0c-6.34-6.34-6.34-17.44,0-23.79
		S67.96,44.08,74.3,50.43L74.3,50.43z"/>
	<path class="st3" d="M205.92,182.05c6.34,6.34,6.34,17.44,0,23.79c-6.34,7.93-17.44,7.93-23.79,0c-6.34-6.34-6.34-17.44,0-23.79
		C188.48,175.71,199.58,175.71,205.92,182.05L205.92,182.05z"/>
	<path class="st4" d="M50.51,182.05c6.34-6.34,17.44-6.34,23.79,0c6.34,6.34,6.34,17.44,0,23.79c-6.34,7.93-17.44,7.93-23.79,0
		C44.17,199.5,44.17,188.39,50.51,182.05L50.51,182.05z"/>
	<path class="st5" d="M182.14,50.43c6.34-6.34,17.44-6.34,23.79,0c6.34,6.34,6.34,17.44,0,23.79c-6.34,7.93-17.44,7.93-23.79,0
		C175.79,67.87,175.79,56.77,182.14,50.43L182.14,50.43z"/>
	<path class="st6" d="M221.78,94.83c19.03,0,33.3,15.86,33.3,33.3c0,19.03-14.27,34.89-33.3,34.89V94.83z"/>
	<path class="st6" d="M171.04,101.17c15.86,0,26.96,12.69,26.96,26.96c0,15.86-11.1,26.96-26.96,26.96V101.17z"/>
	<path class="st7" d="M34.65,163.02c-17.44,0-33.3-15.86-33.3-34.89c0-17.44,15.86-33.3,33.3-33.3V163.02z"/>
	<path class="st7" d="M85.4,155.09c-15.86,0-26.96-11.1-26.96-26.96c0-14.27,11.1-26.96,26.96-26.96V155.09z"/>
</g>
</svg>
